<?xml version="1.0" encoding="utf-8"?>
<svg version="1.1" xmlns="http://www.w3.org/2000/svg" x="0px" y="0px" viewBox="0 0 24 24">
  <rect width="100%" height="100%" fill="#fff" rx="3" ry="3"/>
  <path fill="#EB0045"
        d="M15.5,24l-3.7-10h-0.5H8.4v10h-3V0h5.8c3.9,0,6.6,2.3,6.6,5.9v2.3c0,2.3-1.2,4.2-3.1,5.1L18.6,24H15.5z M11.3,11.2c2.1,0,3.4-1,3.4-3V5.9c0-2-1.3-3-3.4-3H8.4v8.3H11.3z"/>
  <path fill="#223871"
        d="M11.6,11.2c-0.1,0-0.2,0-0.2,0H8.4V2.8h2.9c0.1,0,0.2,0,0.2,0V0c-0.1,0-0.3,0-0.4,0H5.4v24h3V14h2.8h0.4V11.2z"/>
</svg>
