<?xml version="1.0" encoding="utf-8"?>
<svg version="1.1" xmlns="http://www.w3.org/2000/svg" viewBox="0 0 255 40">
  <style type="text/css">
    .st0{fill:#EB0045;}
    .st1{fill:#002E6D;}
  </style>
  <g>
    <path class="st0" d="M150.14,37.72l-5.53-14.73h-0.8h-4.07v14.73h-4.42V2.28h8.5c5.73,0,9.7,3.37,9.7,8.65v3.37
                c0,3.47-1.71,6.18-4.58,7.59l5.83,15.84H150.14z M144.06,18.77c3.17,0,5.03-1.51,5.03-4.47v-3.37c0-2.92-1.86-4.47-5.03-4.47
                h-4.32v12.32H144.06z"/>
    <path class="st0" d="M163.81,28.97V2.28h4.42v26.7c0,3.27,1.66,5.18,4.78,5.18c3.22,0,4.88-1.91,4.88-5.18V2.28h4.42v26.7
                c0,5.58-3.67,9.4-9.25,9.4C167.48,38.38,163.81,34.55,163.81,28.97z"/>
    <path class="st0" d="M210.61,26.11v2.66c0,5.43-3.92,8.95-9.7,8.95h-8.5V2.28h7.49c5.73,0,9.7,2.87,9.7,8.09v2.36
                c0,2.71-1.16,4.93-3.27,6.28C209.06,20.38,210.61,23.04,210.61,26.11z M196.84,6.35v11.01h3.32c3.17,0,5.03-1.36,5.03-4.68v-2.16
                c0-2.92-1.86-4.17-5.03-4.17H196.84z M206.19,26.21c0-3.12-1.86-4.83-5.03-4.83h-4.32v12.27h4.32c3.17,0,5.03-1.76,5.03-4.88
                V26.21z"/>
    <path class="st0" d="M220.37,2.28h4.42v35.44h-4.42V2.28z"/>
    <path class="st0" d="M254.15,2.28v35.44h-3.82l-10.91-26.14v26.14h-3.82V2.28h3.82l10.91,26.19V2.28H254.15z"/>

    <g>
      <path class="st1" d="M33.26,6.45v11.71h8.25v4.22h-8.25V33.5h10.51v4.22H28.83V2.28h14.93v4.17H33.26z"/>
      <path class="st1" d="M53.07,28.97V11.03c0-5.58,3.92-9.4,9.55-9.4c5.63,0,9.6,3.82,9.6,9.4v4.17H67.8v-4.17
                    c0-3.27-1.91-5.18-5.18-5.18c-3.22,0-5.13,1.91-5.13,5.18v17.95c0,3.27,1.91,5.18,5.13,5.18c3.27,0,5.18-1.91,5.18-5.18v-4.22
                    h4.42v4.22c0,5.58-3.92,9.4-9.6,9.4C56.99,38.38,53.07,34.55,53.07,28.97z"/>
      <path class="st1"
            d="M96.5,37.72l-9.75-17.09v17.09h-4.42V2.28h4.42v15.99l9-15.99h4.78l-8.9,17.29l9.7,18.15H96.5z"/>
      <path class="st1" d="M114.9,6.45v11.71h8.25v4.22h-8.25V33.5h10.51v4.22h-14.93V2.28h14.93v4.17H114.9z"/>
      <path class="st1" d="M144.41,18.76c-0.12,0-0.23,0.01-0.35,0.01h-4.32V6.45h4.32c0.12,0,0.24,0.01,0.35,0.01V2.3
                    c-0.2-0.01-0.4-0.02-0.6-0.02h-8.5v35.44h4.42V22.99h4.07h0.6V18.76z"/>
    </g>
    <path class="st1" d="M19.27,11.44v17.11c0,5.57-3.91,9.13-9.69,9.13H0.85V2.31h8.73C15.31,2.31,19.27,5.87,19.27,11.44z
                 M14.85,11.44c0-3.26-1.86-4.97-5.02-4.97H5.27v27h4.57c3.16,0,5.02-1.66,5.02-4.92V11.44z"/>
  </g>
</svg>
